<svg width="139" height="23" viewBox="0 0 139 23" fill="none" xmlns="http://www.w3.org/2000/svg">
<path fill-rule="evenodd" clip-rule="evenodd" d="M123.221 10.0663C123.767 9.78323 124.179 9.46832 124.461 9.12526C124.963 8.51102 125.213 7.69671 125.213 6.68754C125.213 5.70726 124.963 4.86629 124.467 4.16238C123.64 3.01614 122.237 2.4293 120.255 2.39893H112.4V18.9465H119.724C120.55 18.9465 121.314 18.8739 122.02 18.7243C122.728 18.5731 123.339 18.2975 123.856 17.8929C124.317 17.5402 124.701 17.106 125.007 16.5911C125.491 15.8131 125.732 14.9328 125.732 13.9525C125.732 13.0012 125.521 12.1921 125.1 11.5274C124.675 10.8613 124.049 10.3752 123.221 10.0663ZM115.64 5.27237H119.178C119.956 5.27237 120.597 5.35906 121.101 5.53096C121.682 5.77918 121.973 6.28821 121.973 7.06102C121.973 7.75381 121.752 8.23839 121.312 8.51254C120.87 8.78669 120.296 8.92377 119.593 8.92377H115.64V5.27237ZM121.233 15.7835C120.842 15.9769 120.291 16.0747 119.586 16.0747H115.64V11.6616H119.642C120.338 11.6675 120.881 11.7623 121.268 11.9417C121.959 12.2647 122.302 12.8552 122.302 13.7177C122.302 14.735 121.946 15.4212 121.233 15.7835ZM129.207 3.17023H136.173V5.22933H129.207V3.17023ZM135.559 6.95924C136.399 7.34009 137.09 7.9447 137.634 8.76938C138.13 9.49699 138.449 10.3409 138.594 11.2997C138.68 11.8606 138.713 12.6727 138.7 13.7293H129.942C129.995 14.9556 130.409 15.8165 131.201 16.31C131.68 16.6168 132.257 16.7709 132.934 16.7709C133.647 16.7709 134.23 16.5834 134.678 16.2107C134.923 16.007 135.14 15.7269 135.325 15.3683H138.534C138.449 16.0922 138.059 16.8309 137.37 17.58C136.293 18.7692 134.786 19.3642 132.848 19.3642C131.247 19.3642 129.835 18.8633 128.615 17.8586C127.389 16.8561 126.78 15.2216 126.78 12.9609C126.78 10.8403 127.332 9.21395 128.435 8.08178C129.54 6.95257 130.971 6.38427 132.732 6.38427C133.779 6.38427 134.721 6.57617 135.559 6.95924ZM130.019 11.6183C130.134 10.8217 130.414 10.1905 130.858 9.7244C131.302 9.25834 131.929 9.02569 132.733 9.02569C133.476 9.02569 134.096 9.24427 134.6 9.68365C135.098 10.126 135.38 10.7684 135.437 11.6183H130.019Z" fill="white"/>
<path fill-rule="evenodd" clip-rule="evenodd" d="M77.9171 0H61.0332C59.5791 0 58.4004 1.19894 58.4004 2.67882V19.9094C58.4004 21.3887 59.5791 22.5882 61.0332 22.5882H77.9171C79.3713 22.5882 80.55 21.3887 80.55 19.9094V2.67882C80.55 1.19894 79.3713 0 77.9171 0ZM74.3207 3.52928C74.3207 3.1399 74.6306 2.82384 75.0124 2.82384H77.0889C77.4713 2.82384 77.7812 3.1399 77.7812 3.52928V5.64745C77.7812 6.03683 77.4713 6.35289 77.0889 6.35289H75.0124C74.6306 6.35289 74.3207 6.03683 74.3207 5.64745V3.52928ZM69.5011 6.98679C71.8537 6.98679 73.7609 8.92752 73.7609 11.3205C73.7609 13.714 71.8537 15.6541 69.5011 15.6541C67.1492 15.6541 65.242 13.714 65.242 11.3205C65.242 8.92752 67.1492 6.98679 69.5011 6.98679ZM78.4737 19.765C78.4737 20.1544 78.1638 20.471 77.7814 20.471H61.1694C60.7869 20.471 60.477 20.1544 60.477 19.765V9.17661H63.2458C62.8851 9.70584 62.7631 10.6935 62.7631 11.3207C62.7631 15.1005 65.7862 18.176 69.501 18.176C73.2165 18.176 76.2396 15.1005 76.2396 11.3207C76.2396 10.6935 76.152 9.72125 75.705 9.17661H78.4737V19.765Z" fill="white"/>
<path fill-rule="evenodd" clip-rule="evenodd" d="M24.7471 0.607024C23.7598 1.22545 22.6689 1.67521 21.5029 1.91586C20.5741 0.86687 19.2466 0.211426 17.7769 0.211426C14.9599 0.211426 12.6737 2.63026 12.6737 5.61336C12.6737 6.03707 12.7176 6.44775 12.8053 6.84335C8.56243 6.61778 4.80128 4.46976 2.28189 1.19734C1.84206 1.99813 1.59091 2.92713 1.59091 3.91647C1.59091 5.78956 2.49184 7.44326 3.86249 8.41203C3.02668 8.38597 2.23804 8.14052 1.54839 7.73875V7.80457C1.54839 10.4229 3.30838 12.6073 5.64573 13.1016C5.21786 13.2284 4.76607 13.2922 4.30032 13.2922C3.97145 13.2922 3.65054 13.2593 3.33961 13.1962C3.98939 15.3415 5.87362 16.904 8.10798 16.9458C6.36128 18.3952 4.15881 19.2591 1.76764 19.2591C1.35572 19.2591 0.948443 19.2344 0.549805 19.185C2.80875 20.7153 5.49358 21.61 8.37573 21.61C17.767 21.61 22.9008 13.38 22.9008 6.24069C22.9008 6.00553 22.8968 5.77105 22.8882 5.54068C23.8854 4.77897 24.7518 3.82803 25.4335 2.74476C24.5192 3.17395 23.5346 3.46465 22.5021 3.59492C23.5565 2.92713 24.3658 1.86855 24.7471 0.607024" fill="white"/>
</svg>