<svg xmlns="http://www.w3.org/2000/svg" xmlns:xlink="http://www.w3.org/1999/xlink" width="500" zoomAndPan="magnify" viewBox="0 0 375 374.999991" height="500" preserveAspectRatio="xMidYMid meet" version="1.0"><defs><g/><clipPath id="id1"><path d="M 49 66.292969 L 325 66.292969 L 325 308 L 49 308 Z M 49 66.292969 " clip-rule="nonzero"/></clipPath><clipPath id="id2"><path d="M 64 82 L 311 82 L 311 298.554688 L 64 298.554688 Z M 64 82 " clip-rule="nonzero"/></clipPath><clipPath id="id3"><path d="M 115 90.804688 L 260 90.804688 L 260 217.554688 L 115 217.554688 Z M 115 90.804688 " clip-rule="nonzero"/></clipPath></defs><g clip-path="url(#id1)"><path fill="rgb(0%, 0%, 0%)" d="M 321.625 276.957031 L 204.570312 79.796875 C 200.265625 71.1875 194.671875 66.882812 189.078125 66.882812 C 183.484375 66.882812 177.890625 71.1875 173.585938 79.796875 L 53.089844 276.957031 C 44.480469 293.746094 53.089844 307.949219 72.023438 307.949219 L 302.691406 307.949219 C 321.625 307.949219 330.230469 294.175781 321.625 276.957031 Z M 321.625 276.957031 " fill-opacity="1" fill-rule="nonzero"/></g><g clip-path="url(#id2)"><path fill="rgb(100%, 100%, 100%)" d="M 307.605469 270.296875 L 202.839844 93.886719 C 198.988281 86.183594 193.980469 82.332031 188.976562 82.332031 C 183.96875 82.332031 178.960938 86.183594 175.109375 93.886719 L 67.261719 270.296875 C 59.558594 285.316406 67.261719 298.027344 84.210938 298.027344 L 290.660156 298.027344 C 307.605469 298.027344 315.308594 285.703125 307.605469 270.296875 Z M 307.605469 270.296875 " fill-opacity="1" fill-rule="nonzero"/></g><g clip-path="url(#id3)"><path fill="rgb(42.349243%, 56.858826%, 76.078796%)" d="M 259.644531 181.414062 C 259.644531 188.671875 258.035156 195.535156 255.113281 200.734375 C 251.949219 206.371094 247.585938 209.476562 242.832031 209.476562 L 231.195312 209.476562 C 227.398438 209.476562 223.804688 207.460938 220.910156 203.753906 C 212.828125 212.902344 201.5625 217.535156 187.390625 217.535156 C 173.214844 217.535156 161.949219 212.902344 153.867188 203.753906 C 150.96875 207.460938 147.378906 209.476562 143.582031 209.476562 L 131.945312 209.476562 C 127.1875 209.476562 122.828125 206.371094 119.664062 200.734375 C 116.742188 195.535156 115.136719 188.675781 115.136719 181.414062 C 115.136719 174.160156 116.742188 167.296875 119.664062 162.09375 C 122.828125 156.460938 127.191406 153.355469 131.945312 153.355469 L 137.132812 153.355469 C 137.050781 153.054688 136.972656 152.75 136.910156 152.4375 C 135.148438 144.167969 135.664062 136.132812 138.402344 129.207031 C 139.136719 127.351562 140.117188 125.609375 141.3125 124.027344 C 142.125 118.550781 142.980469 114.21875 143.558594 111.523438 C 145.40625 103.035156 151.785156 97.027344 162.523438 93.667969 C 170.089844 91.300781 178.121094 90.804688 183.527344 90.804688 C 183.832031 90.804688 184.125 90.804688 184.398438 90.808594 C 185.390625 90.816406 186.390625 90.824219 187.390625 90.824219 C 188.386719 90.824219 189.386719 90.816406 190.375 90.808594 C 190.664062 90.804688 190.972656 90.800781 191.296875 90.800781 C 195.703125 90.800781 204.289062 91.171875 212.253906 93.664062 C 222.992188 97.023438 229.371094 103.03125 231.21875 111.519531 C 231.800781 114.214844 232.65625 118.542969 233.464844 124.023438 C 234.664062 125.605469 235.640625 127.34375 236.375 129.199219 C 239.113281 136.128906 239.628906 144.164062 237.867188 152.4375 C 237.804688 152.746094 237.726562 153.046875 237.644531 153.351562 L 242.832031 153.351562 C 247.589844 153.351562 251.949219 156.453125 255.113281 162.089844 C 258.035156 167.300781 259.644531 174.160156 259.644531 181.414062 Z M 259.644531 181.414062 " fill-opacity="1" fill-rule="nonzero"/></g><path fill="rgb(0%, 0%, 0%)" d="M 141.179688 155.054688 L 143.582031 155.054688 C 146.796875 155.054688 149.832031 156.769531 152.367188 159.933594 C 154.0625 159.582031 155.660156 158.820312 156.996094 157.707031 L 180.796875 137.914062 C 183.488281 135.671875 184.796875 132.269531 184.292969 128.804688 C 183.792969 125.359375 181.582031 122.472656 178.375 121.09375 C 173.941406 119.179688 168.101562 118.214844 161.015625 118.214844 C 160.207031 118.214844 159.375 118.222656 158.539062 118.25 C 150.851562 118.488281 144.070312 123.230469 141.261719 130.328125 C 138.742188 136.695312 138.273438 144.125 139.914062 151.808594 C 140.15625 152.96875 140.585938 154.058594 141.179688 155.054688 Z M 144.75 131.699219 C 147.011719 125.992188 152.46875 122.179688 158.660156 121.988281 C 163.910156 121.824219 171.335938 122.132812 176.882812 124.523438 C 178.886719 125.386719 180.265625 127.1875 180.582031 129.34375 C 180.894531 131.511719 180.074219 133.640625 178.390625 135.042969 L 154.59375 154.839844 C 153.34375 155.875 151.816406 156.414062 150.253906 156.414062 C 149.507812 156.414062 148.75 156.292969 148.015625 156.039062 C 145.742188 155.253906 144.082031 153.382812 143.582031 151.035156 C 142.097656 144.066406 142.503906 137.382812 144.75 131.699219 Z M 242.832031 156.414062 C 235.257812 156.414062 229.09375 167.628906 229.09375 181.414062 C 229.09375 195.199219 235.257812 206.414062 242.832031 206.414062 C 250.410156 206.414062 256.570312 195.199219 256.570312 181.414062 C 256.570312 167.628906 250.410156 156.414062 242.832031 156.414062 Z M 244.667969 195.726562 C 243.667969 195.726562 242.695312 195.433594 241.773438 194.859375 L 241.757812 194.871094 L 241.355469 194.578125 C 240.972656 194.292969 240.609375 193.972656 240.261719 193.605469 C 238.75 192 237.589844 189.605469 236.9375 186.804688 C 236.84375 186.40625 236.757812 186 236.683594 185.585938 C 236.453125 184.257812 236.328125 182.855469 236.328125 181.414062 C 236.328125 175.65625 238.300781 170.492188 241.355469 168.253906 L 241.757812 167.957031 L 241.773438 167.972656 C 242.695312 167.394531 243.667969 167.101562 244.667969 167.101562 C 249.34375 167.101562 253.003906 173.390625 253.003906 181.414062 C 253.003906 189.441406 249.34375 195.726562 244.667969 195.726562 Z M 232.039062 199.90625 C 229.257812 194.957031 227.730469 188.390625 227.730469 181.414062 C 227.730469 174.441406 229.257812 167.875 232.039062 162.925781 C 233.730469 159.914062 235.769531 157.714844 238.003906 156.414062 L 231.195312 156.414062 C 223.617188 156.414062 217.457031 167.628906 217.457031 181.414062 C 217.457031 195.199219 223.617188 206.414062 231.195312 206.414062 L 238.003906 206.414062 C 235.769531 205.117188 233.730469 202.917969 232.039062 199.90625 Z M 220.046875 163.582031 C 214.941406 164.109375 210.871094 171.90625 210.871094 181.414062 C 210.871094 190.925781 214.941406 198.722656 220.046875 199.25 C 217.492188 194.382812 216.089844 188.089844 216.089844 181.414062 C 216.089844 174.742188 217.492188 168.449219 220.046875 163.582031 Z M 145.683594 181.414062 C 145.683594 167.628906 139.519531 156.414062 131.945312 156.414062 C 124.367188 156.414062 118.207031 167.628906 118.207031 181.414062 C 118.207031 195.199219 124.367188 206.414062 131.945312 206.414062 C 139.519531 206.414062 145.683594 195.199219 145.683594 181.414062 Z M 133.421875 194.578125 L 133.019531 194.871094 L 133.003906 194.859375 C 132.082031 195.433594 131.109375 195.726562 130.109375 195.726562 C 125.433594 195.726562 121.773438 189.441406 121.773438 181.414062 C 121.773438 173.390625 125.433594 167.101562 130.109375 167.101562 C 131.109375 167.101562 132.082031 167.394531 133.003906 167.972656 L 133.019531 167.957031 L 133.421875 168.253906 C 135.902344 170.074219 137.671875 173.824219 138.246094 178.253906 C 138.378906 179.277344 138.449219 180.339844 138.449219 181.414062 C 138.449219 187.171875 136.476562 192.339844 133.421875 194.578125 Z M 143.582031 156.414062 L 136.773438 156.414062 C 139.007812 157.714844 141.046875 159.914062 142.738281 162.925781 C 145.519531 167.875 147.046875 174.441406 147.046875 181.414062 C 147.046875 188.390625 145.519531 194.957031 142.738281 199.90625 C 141.046875 202.917969 139.007812 205.117188 136.773438 206.414062 L 143.582031 206.414062 C 151.160156 206.414062 157.320312 195.199219 157.320312 181.414062 C 157.320312 167.628906 151.160156 156.414062 143.582031 156.414062 Z M 163.90625 181.414062 C 163.90625 171.90625 159.835938 164.109375 154.730469 163.582031 C 157.285156 168.449219 158.6875 174.742188 158.6875 181.414062 C 158.6875 188.089844 157.285156 194.382812 154.730469 199.25 C 159.835938 198.722656 163.90625 190.925781 163.90625 181.414062 Z M 209.503906 181.414062 C 209.503906 170.8125 214.484375 162.191406 220.601562 162.191406 L 220.832031 162.191406 C 221.058594 161.820312 221.289062 161.464844 221.519531 161.121094 C 219.832031 160.679688 218.253906 159.871094 216.90625 158.75 L 193.109375 138.957031 C 190.046875 136.414062 188.558594 132.542969 189.132812 128.613281 C 189.703125 124.691406 192.21875 121.414062 195.863281 119.84375 C 200.464844 117.859375 206.488281 116.855469 213.761719 116.855469 C 214.585938 116.855469 215.433594 116.863281 216.277344 116.890625 C 221.621094 117.058594 226.550781 119.253906 230.183594 122.855469 C 229.460938 118.207031 228.730469 114.542969 228.214844 112.171875 C 226.621094 104.835938 220.941406 99.589844 211.332031 96.585938 C 203.398438 94.101562 194.820312 93.816406 190.410156 93.867188 C 188.40625 93.890625 186.371094 93.890625 184.367188 93.867188 C 179.960938 93.816406 171.382812 94.101562 163.445312 96.585938 C 153.835938 99.589844 148.15625 104.835938 146.5625 112.171875 C 146.046875 114.542969 145.316406 118.207031 144.597656 122.855469 C 148.226562 119.253906 153.15625 117.058594 158.5 116.890625 C 159.347656 116.863281 160.191406 116.855469 161.015625 116.855469 C 168.289062 116.855469 174.3125 117.859375 178.914062 119.84375 C 182.558594 121.414062 185.074219 124.691406 185.644531 128.613281 C 186.21875 132.542969 184.730469 136.414062 181.667969 138.957031 L 157.871094 158.75 C 156.523438 159.871094 154.945312 160.679688 153.257812 161.121094 C 153.488281 161.464844 153.71875 161.820312 153.945312 162.191406 L 154.175781 162.191406 C 160.292969 162.191406 165.273438 170.8125 165.273438 181.414062 C 165.273438 191.429688 160.832031 199.675781 155.183594 200.558594 C 162.71875 209.792969 173.542969 214.476562 187.390625 214.476562 C 201.234375 214.476562 212.058594 209.792969 219.59375 200.558594 C 213.949219 199.675781 209.503906 191.429688 209.503906 181.414062 Z M 130.109375 168.460938 C 126.332031 168.460938 123.136719 174.398438 123.136719 181.414062 C 123.136719 188.4375 126.332031 194.367188 130.109375 194.367188 C 130.703125 194.367188 131.289062 194.21875 131.863281 193.933594 C 129.246094 191.449219 127.589844 186.683594 127.589844 181.414062 C 127.589844 176.148438 129.246094 171.382812 131.863281 168.894531 C 131.289062 168.613281 130.703125 168.460938 130.109375 168.460938 Z M 244.667969 168.460938 C 244.074219 168.460938 243.488281 168.613281 242.914062 168.894531 C 245.53125 171.382812 247.1875 176.148438 247.1875 181.414062 C 247.1875 186.683594 245.53125 191.449219 242.914062 193.933594 C 243.488281 194.21875 244.074219 194.367188 244.667969 194.367188 C 248.445312 194.367188 251.640625 188.4375 251.640625 181.414062 C 251.640625 174.398438 248.445312 168.460938 244.667969 168.460938 Z M 216.238281 118.25 C 215.402344 118.222656 214.570312 118.214844 213.761719 118.214844 C 206.675781 118.214844 200.835938 119.179688 196.402344 121.09375 C 193.195312 122.472656 190.984375 125.359375 190.484375 128.804688 C 189.980469 132.269531 191.289062 135.671875 193.980469 137.914062 L 217.78125 157.707031 C 219.117188 158.820312 220.710938 159.582031 222.410156 159.933594 C 224.945312 156.769531 227.984375 155.054688 231.195312 155.054688 L 233.597656 155.054688 C 234.191406 154.058594 234.621094 152.96875 234.867188 151.808594 C 236.503906 144.125 236.035156 136.695312 233.515625 130.328125 C 230.707031 123.230469 223.925781 118.488281 216.238281 118.25 Z M 231.195312 151.035156 C 230.695312 153.382812 229.035156 155.253906 226.761719 156.039062 C 226.027344 156.292969 225.269531 156.414062 224.523438 156.414062 C 222.960938 156.414062 221.433594 155.875 220.183594 154.839844 L 196.386719 135.042969 C 194.703125 133.640625 193.882812 131.511719 194.195312 129.34375 C 194.511719 127.1875 195.890625 125.386719 197.894531 124.523438 C 203.441406 122.132812 210.867188 121.828125 216.117188 121.988281 C 222.308594 122.179688 227.765625 125.992188 230.023438 131.699219 C 232.273438 137.382812 232.679688 144.066406 231.195312 151.035156 Z M 231.195312 151.035156 " fill-opacity="1" fill-rule="nonzero"/><path fill="rgb(27.449036%, 24.708557%, 30.979919%)" d="M 206.167969 179.496094 C 206.164062 179.285156 205.75 173.796875 201.632812 168.792969 C 203.804688 171.214844 204.851562 173.160156 204.851562 173.160156 C 204.851562 173.160156 202.582031 154.300781 184.398438 156.414062 C 184.398438 156.414062 188.53125 156.648438 190.378906 159.058594 C 190.378906 159.058594 186.503906 158.445312 179.28125 162.691406 C 179.28125 162.691406 184.882812 160.910156 190.371094 161.757812 C 190.246094 161.753906 183.8125 161.457031 181.003906 163.417969 C 181.003906 163.417969 184.242188 163.46875 186.378906 164.269531 L 187.390625 166.546875 L 187.390625 196.273438 C 187.390625 196.273438 186.847656 199.410156 181.003906 199.410156 C 181.003906 199.410156 185.523438 202.433594 191.996094 200.847656 C 190.96875 202.128906 189.0625 204.242188 186.769531 205.566406 C 186.769531 205.566406 190.304688 206.464844 192.816406 206.414062 C 192.816406 206.414062 187.714844 209.421875 179.835938 210.085938 C 179.835938 210.085938 185.707031 214.992188 191.328125 215.007812 C 191.328125 215.007812 195.351562 215.457031 199.476562 213.105469 L 202.914062 192.933594 C 202.914062 192.933594 201.988281 194.335938 200.332031 195.878906 C 203.007812 192.910156 206.660156 187.355469 206.167969 179.496094 Z M 195.496094 163.582031 C 196.394531 164.148438 197.222656 164.746094 197.988281 165.355469 C 195.980469 163.886719 193.488281 162.621094 190.382812 161.765625 C 192.167969 162.042969 193.933594 162.597656 195.496094 163.582031 Z M 183.449219 206.414062 C 173.304688 204.605469 167.828125 195.726562 167.828125 195.726562 C 162.632812 205.703125 172.625 209.824219 172.625 209.824219 C 171.691406 206.414062 174.761719 205.570312 174.761719 205.570312 L 174.226562 208.628906 C 177.699219 208.496094 182.636719 206.257812 183.449219 206.414062 Z M 218.488281 163.582031 C 218.488281 163.582031 215.800781 168.558594 214.820312 171.035156 L 213.59375 167.910156 C 213.59375 167.910156 207.972656 176.886719 210.527344 187.769531 C 213.085938 198.652344 220.515625 200.207031 220.515625 200.207031 C 220.515625 200.207031 216.636719 189.34375 216.410156 186.886719 C 216.1875 184.425781 215.519531 169.710938 221.136719 162.875 Z M 161.675781 180.160156 C 161.828125 169.222656 157.484375 164.460938 156.089844 163.21875 C 156.464844 163.277344 156.878906 163.386719 157.320312 163.582031 L 176.863281 147.171875 C 177.132812 149.238281 177.785156 151.796875 179.28125 154.164062 C 179.28125 154.164062 168.96875 161.648438 168.195312 175.558594 L 170.511719 168.457031 C 170.511719 168.457031 174.511719 156.351562 187.390625 155.554688 L 194.972656 157.0625 L 196.128906 143.847656 C 196.128906 143.847656 189.34375 135.34375 189.585938 130.679688 C 189.828125 126.015625 191.320312 117.699219 212.015625 117.542969 L 222.390625 115.253906 L 221.761719 101.867188 C 221.761719 101.867188 206.144531 92.496094 188.515625 93.195312 C 188.515625 93.195312 193.058594 94.902344 193.457031 95.96875 C 193.457031 95.96875 186.710938 97.164062 182.605469 99.558594 L 190.375 101.023438 C 190.375 101.023438 186.644531 105.492188 185.175781 108.90625 L 201.523438 107.003906 C 201.523438 107.003906 197.265625 108.734375 195.492188 109.929688 L 201.523438 111.257812 C 201.523438 111.257812 190.09375 111.128906 186.769531 115.917969 C 183.441406 120.707031 184.5625 125.152344 184.5625 125.152344 L 188.78125 123.304688 C 188.78125 123.304688 186.660156 130.015625 187.386719 135.070312 C 188.113281 140.125 189.3125 141.054688 189.3125 141.054688 C 189.3125 141.054688 186.210938 141.046875 182.382812 141.675781 C 184.171875 139.164062 185.859375 135.605469 185.722656 131.1875 C 185.722656 131.1875 185.4375 135.707031 178.847656 140.496094 C 180.347656 139.171875 181.765625 137.875 183.03125 136.632812 C 183.03125 136.632812 189.007812 126.421875 179.28125 120.574219 C 179.28125 120.574219 168.226562 116.152344 159.328125 118.226562 C 159.328125 118.226562 166.539062 119.25 169.195312 121.105469 C 169.195312 121.105469 161.992188 120.5 156.941406 122.132812 C 156.941406 122.132812 179.300781 121.773438 179.835938 129.085938 C 179.835938 129.085938 181.152344 132.679688 173.25 138.398438 L 160.316406 150.074219 C 160.316406 150.074219 159.835938 154.371094 156.214844 158.289062 C 156.214844 158.289062 161.265625 154.671875 167.390625 149.90625 C 162.277344 154.402344 157.320312 158.878906 157.320312 158.878906 L 152.195312 160.476562 L 153.328125 162.734375 C 151.492188 160.113281 149.003906 157.871094 145.683594 156.25 C 145.683594 156.25 140.976562 155.144531 136.773438 156.414062 C 136.773438 156.414062 150.195312 157.90625 152.195312 173.160156 C 152.195312 173.160156 150.195312 170.15625 148.058594 167.910156 C 148.058594 167.910156 157.402344 194.363281 136.773438 206.414062 L 135.238281 207.058594 L 144.597656 207.058594 C 144.597656 207.058594 150.582031 205.691406 153.753906 199.761719 C 156.09375 195.382812 160.707031 178.699219 155.484375 166.617188 C 156.25 168.308594 157.148438 170.640625 158.046875 173.761719 C 160.363281 181.824219 155.667969 199.25 155.667969 199.25 C 165.816406 196.789062 164.480469 179.101562 164.480469 179.101562 Z M 129.628906 167.910156 C 129.628906 167.910156 125.558594 173.644531 125.757812 182.691406 C 125.757812 182.691406 123.933594 178.492188 124.203125 174.632812 C 124.203125 174.632812 120.914062 180.296875 123.136719 187.613281 C 125.359375 194.925781 130.699219 196.628906 133.902344 192.9375 L 132.96875 168.464844 Z M 175.164062 106.082031 L 176.753906 111.9375 L 179.28125 105.285156 L 179.28125 111.9375 C 179.28125 111.9375 181.75 105.949219 184.398438 102.492188 C 184.398438 102.492188 167.105469 101.03125 157.714844 105.550781 C 157.714844 105.550781 155.566406 111.71875 155.535156 114.464844 C 155.535156 114.464844 167.199219 112.070312 173.25 111.941406 Z M 241.929688 156.253906 C 241.929688 156.253906 244.734375 156.625 246.203125 160.882812 L 242.832031 159.9375 C 242.832031 159.9375 244.863281 163.90625 244.066406 167.914062 C 244.066406 167.914062 245.035156 167.695312 246.316406 168.1875 C 245 168.003906 243.527344 168.324219 241.929688 168.464844 L 244.667969 191.703125 C 244.667969 191.703125 249.535156 186.109375 249.140625 177.492188 C 249.140625 177.492188 251.414062 184.007812 248.472656 192.199219 C 248.472656 192.199219 253.476562 188.652344 251.640625 177.492188 C 251.378906 175.902344 251.085938 174.582031 250.757812 173.476562 C 251.277344 174.816406 251.71875 176.476562 252.042969 178.53125 C 252.042969 178.53125 254.082031 193.125 244.664062 194.828125 C 244.664062 194.828125 242.894531 197.496094 238.003906 196.28125 C 238.003906 196.28125 238.542969 200.769531 245.121094 200.640625 C 245.121094 200.640625 236.828125 203.941406 233.359375 199.507812 C 233.359375 199.507812 236.027344 207.566406 242.914062 207.039062 C 242.914062 207.039062 252.789062 207.835938 256.570312 190.546875 C 256.570312 190.539062 260.289062 156.15625 241.929688 156.253906 Z M 226.628906 120.039062 C 226.628906 120.039062 216.898438 114.765625 199.433594 120.003906 C 199.433594 120.003906 206.515625 119.066406 210.867188 122.019531 L 211.480469 122.707031 C 211.480469 122.707031 225.914062 120.445312 230.179688 133.347656 C 230.179688 133.347656 234.28125 156.113281 224.699219 155.804688 C 224.699219 155.804688 219.023438 155.554688 209.042969 144.382812 L 206.523438 143.472656 L 211.480469 149.214844 L 204.265625 146.46875 C 204.265625 146.46875 215.398438 160.519531 222.386719 160.828125 C 222.386719 160.828125 226.171875 155.351562 234.046875 155.796875 C 234.050781 155.808594 242.710938 133.59375 226.628906 120.039062 Z M 185.585938 186.894531 L 182.554688 186.03125 L 178.003906 190.5625 C 177.972656 191.585938 180.644531 193.664062 180.644531 193.664062 Z M 185.585938 186.894531 " fill-opacity="1" fill-rule="nonzero"/><path fill="rgb(98.429871%, 98.429871%, 98.429871%)" d="M 195.546875 129.535156 C 195.792969 127.855469 196.871094 126.441406 198.4375 125.769531 C 203.75 123.480469 210.964844 123.1875 216.078125 123.347656 C 221.722656 123.523438 226.699219 126.996094 228.753906 132.199219 C 231.46875 139.058594 230.851562 146.074219 229.859375 150.753906 C 229.460938 152.632812 228.136719 154.128906 226.316406 154.753906 C 224.5 155.378906 222.535156 155.019531 221.058594 153.796875 L 197.265625 134 C 195.945312 132.902344 195.300781 131.230469 195.546875 129.535156 Z M 179.230469 129.535156 C 178.984375 127.855469 177.90625 126.441406 176.339844 125.769531 C 171.78125 123.804688 165.824219 123.3125 160.992188 123.3125 C 160.195312 123.3125 159.425781 123.328125 158.699219 123.347656 C 153.058594 123.523438 148.078125 126.996094 146.023438 132.199219 C 143.308594 139.058594 143.925781 146.074219 144.917969 150.753906 C 145.316406 152.632812 146.640625 154.128906 148.460938 154.753906 C 150.277344 155.378906 152.242188 155.019531 153.71875 153.796875 L 177.511719 134 C 178.832031 132.902344 179.476562 131.230469 179.230469 129.535156 Z M 147.363281 120.941406 C 153.972656 117.574219 160.164062 116.859375 160.164062 116.859375 C 154.730469 116.722656 149.230469 117.210938 149.21875 117.214844 C 150.066406 113.574219 152.398438 106.695312 158.386719 102.265625 C 166.84375 96.011719 185.628906 93.878906 185.628906 93.878906 C 168.132812 93.03125 157.835938 97.300781 151.445312 102.265625 C 145.054688 107.230469 143.515625 124.4375 143.515625 124.4375 Z M 141.914062 137.070312 C 143.070312 126.074219 151.691406 119.730469 151.691406 119.730469 C 143.59375 121.234375 140.402344 130.683594 140.402344 130.683594 C 135.242188 140.347656 140.402344 155.722656 140.402344 155.722656 L 144.074219 155.808594 C 144.074219 155.808594 140.757812 148.066406 141.914062 137.070312 Z M 122.367188 161.808594 C 114.921875 175.109375 117.253906 192.667969 121.773438 199.761719 C 126.289062 206.855469 130.714844 206.3125 130.714844 206.3125 C 123.964844 204.089844 124.113281 195.679688 124.113281 195.679688 C 126.425781 196.5625 129.460938 195.679688 129.460938 195.679688 C 129.460938 195.679688 123.3125 193.375 122.367188 184.597656 C 121.425781 175.816406 125.929688 168.976562 125.929688 168.976562 C 128.078125 165.949219 132.660156 164.703125 132.660156 164.703125 C 129.632812 163.695312 126.605469 164.109375 126.605469 164.109375 C 128.476562 162.515625 131.144531 162.195312 131.144531 162.195312 C 133.28125 158.589844 136.351562 157.726562 136.351562 157.726562 C 128.375 152.148438 122.367188 161.808594 122.367188 161.808594 Z M 175.476562 155.054688 L 172.539062 153.652344 L 162.300781 162.875 C 162.300781 162.875 166.089844 167.71875 166.332031 172.300781 C 166.332031 172.300781 167.78125 165.210938 170.164062 162.199219 L 169.195312 159.414062 L 171.382812 160.125 Z M 158.445312 199.152344 L 154.195312 200.207031 C 163.148438 212.753906 174.191406 212.824219 174.191406 212.824219 C 165.253906 210.808594 158.445312 199.152344 158.445312 199.152344 Z M 225.90625 200.632812 L 228.628906 199.152344 L 223.902344 198.386719 L 226.171875 196.277344 C 222.941406 184.957031 227.730469 167.910156 227.730469 167.910156 L 224.703125 171.035156 C 226.839844 159.246094 233.359375 156.414062 233.359375 156.414062 C 217.636719 153.675781 216.78125 179.277344 216.78125 179.277344 C 216.46875 196.214844 224.140625 204.769531 227.730469 206.421875 C 231.320312 208.074219 238.003906 206.414062 238.003906 206.414062 C 229.351562 206.640625 225.90625 200.632812 225.90625 200.632812 Z M 192.066406 131.195312 C 191.09375 125.367188 196.78125 120.9375 196.78125 120.9375 C 193.34375 121.296875 188.738281 125.453125 189.722656 132.246094 C 190.707031 139.035156 202.546875 145.039062 202.546875 145.039062 C 202.546875 145.039062 193.035156 137.023438 192.066406 131.195312 Z M 171.382812 184.066406 C 170.605469 173.828125 175.476562 167.101562 175.476562 167.101562 L 176.367188 165.355469 L 179.835938 162.53125 L 176.753906 162.871094 C 178.742188 160.742188 182.605469 157.367188 182.605469 157.367188 C 179.675781 157.273438 176.125 160.222656 176.125 160.222656 C 168.230469 167.0625 168.191406 182.289062 168.191406 182.289062 C 170.078125 194.96875 179.277344 198.613281 179.277344 198.613281 C 179.277344 198.613281 172.152344 194.304688 171.382812 184.066406 Z M 176.273438 187.527344 C 175.648438 189.300781 177.421875 189.851562 177.421875 189.851562 L 183.449219 184.160156 C 180.828125 178.664062 186.15625 176.625 186.15625 176.625 L 186.15625 167.917969 L 183.84375 167.917969 C 183.84375 167.910156 176.898438 185.753906 176.273438 187.527344 Z M 176.273438 187.527344 " fill-opacity="1" fill-rule="nonzero"/><path fill="rgb(70.979309%, 70.979309%, 70.979309%)" d="M 177.171875 125.511719 C 182.160156 128.761719 178.441406 133.96875 178.441406 133.96875 C 178.441406 133.96875 162.300781 147.535156 155.535156 153.105469 C 148.765625 158.675781 146.558594 153.632812 146.558594 153.632812 C 155.210938 154.230469 159.320312 142.394531 159.320312 142.394531 L 151.394531 145.339844 L 159.320312 139.078125 L 153.398438 141.332031 L 154.730469 134.949219 L 163.90625 131.199219 C 162.398438 125.855469 157.714844 123.414062 157.714844 123.414062 C 168.171875 121.902344 177.171875 125.511719 177.171875 125.511719 Z M 155.535156 128.117188 C 152.597656 128.738281 149.214844 133.878906 149.214844 133.878906 L 158.96875 130.683594 C 158.96875 130.683594 158.472656 127.496094 155.535156 128.117188 Z M 211.484375 123.351562 C 211.484375 123.351562 214.109375 126.828125 214.910156 131.195312 L 220.046875 135.03125 C 220.046875 135.03125 213.152344 132.90625 209.046875 131.574219 C 209.046875 131.574219 215.472656 137.089844 217.910156 139.078125 L 211.484375 136.542969 L 216.414062 141.507812 C 216.414062 141.507812 211.757812 146.058594 206.949219 142.058594 C 206.949219 142.058594 218.472656 154.503906 224.703125 155.808594 C 224.703125 155.808594 230.386719 155.378906 230.707031 148.492188 C 231.027344 141.605469 233.140625 124.53125 216.414062 122.691406 Z M 212.058594 140.441406 L 203.691406 133.167969 C 203.691406 133.167969 205.121094 143.367188 212.058594 140.441406 Z M 212.058594 140.441406 " fill-opacity="1" fill-rule="nonzero"/><path fill="rgb(42.349243%, 56.858826%, 76.078796%)" d="M 187.390625 196.277344 C 195.1875 196.277344 201.527344 189.609375 201.527344 181.414062 C 201.527344 173.21875 195.1875 166.550781 187.390625 166.550781 C 179.589844 166.550781 173.25 173.21875 173.25 181.414062 C 173.25 189.609375 179.589844 196.277344 187.390625 196.277344 Z M 182.136719 183.039062 C 181.992188 182.503906 181.914062 181.957031 181.914062 181.414062 C 181.914062 179.265625 183.027344 177.296875 184.824219 176.28125 L 185.171875 176.089844 L 185.171875 168.121094 C 185.890625 167.984375 186.632812 167.910156 187.390625 167.910156 C 188.144531 167.910156 188.886719 167.984375 189.605469 168.121094 L 189.605469 176.089844 L 189.953125 176.28125 C 191.75 177.296875 192.863281 179.265625 192.863281 181.414062 C 192.863281 181.957031 192.789062 182.503906 192.640625 183.039062 L 192.539062 183.417969 L 198.023438 188.882812 C 197.222656 190.15625 196.222656 191.277344 195.074219 192.195312 L 189.601562 186.742188 L 189.191406 186.894531 C 188.011719 187.332031 186.769531 187.332031 185.585938 186.894531 L 185.175781 186.742188 L 179.703125 192.195312 C 178.554688 191.277344 177.554688 190.15625 176.753906 188.882812 L 182.238281 183.417969 Z M 148.015625 156.039062 C 148.75 156.292969 149.507812 156.414062 150.253906 156.414062 C 151.816406 156.414062 153.34375 155.875 154.59375 154.839844 L 178.390625 135.042969 C 180.074219 133.640625 180.894531 131.511719 180.582031 129.34375 C 180.265625 127.1875 178.886719 125.386719 176.882812 124.523438 C 171.335938 122.132812 163.910156 121.824219 158.660156 121.988281 C 152.46875 122.179688 147.011719 125.992188 144.75 131.699219 C 142.503906 137.382812 142.097656 144.066406 143.582031 151.035156 C 144.082031 153.382812 145.742188 155.253906 148.015625 156.039062 Z M 146.023438 132.199219 C 148.078125 126.996094 153.058594 123.523438 158.699219 123.347656 C 159.425781 123.328125 160.195312 123.3125 160.992188 123.3125 C 165.824219 123.3125 171.78125 123.804688 176.339844 125.769531 C 177.90625 126.441406 178.984375 127.855469 179.230469 129.535156 C 179.476562 131.230469 178.832031 132.902344 177.511719 134 L 153.71875 153.796875 C 152.242188 155.019531 150.277344 155.378906 148.460938 154.753906 C 146.640625 154.128906 145.316406 152.632812 144.917969 150.753906 C 143.925781 146.074219 143.308594 139.058594 146.023438 132.199219 Z M 216.117188 121.988281 C 210.867188 121.828125 203.441406 122.132812 197.894531 124.523438 C 195.890625 125.386719 194.511719 127.1875 194.195312 129.34375 C 193.882812 131.511719 194.703125 133.640625 196.386719 135.042969 L 220.183594 154.839844 C 221.433594 155.875 222.960938 156.414062 224.523438 156.414062 C 225.269531 156.414062 226.027344 156.292969 226.761719 156.039062 C 229.035156 155.253906 230.695312 153.382812 231.195312 151.035156 C 232.679688 144.066406 232.273438 137.382812 230.023438 131.699219 C 227.765625 125.992188 222.308594 122.179688 216.117188 121.988281 Z M 229.859375 150.753906 C 229.460938 152.632812 228.136719 154.128906 226.316406 154.753906 C 224.5 155.378906 222.535156 155.019531 221.058594 153.796875 L 197.265625 134 C 195.945312 132.902344 195.300781 131.230469 195.546875 129.535156 C 195.792969 127.855469 196.871094 126.441406 198.4375 125.769531 C 203.75 123.480469 210.964844 123.1875 216.078125 123.347656 C 221.722656 123.523438 226.699219 126.996094 228.753906 132.199219 C 231.46875 139.058594 230.851562 146.074219 229.859375 150.753906 Z M 253.625 162.925781 C 250.777344 157.851562 246.941406 155.054688 242.832031 155.054688 L 235.152344 155.054688 C 235.625 154.125 235.980469 153.132812 236.199219 152.09375 C 237.890625 144.144531 237.402344 136.445312 234.785156 129.828125 C 234.046875 127.960938 233.050781 126.242188 231.84375 124.714844 C 231.015625 119.050781 230.140625 114.613281 229.546875 111.882812 C 227.84375 104.035156 221.855469 98.453125 211.742188 95.289062 C 203.625 92.75 194.878906 92.457031 190.394531 92.507812 C 188.402344 92.53125 186.378906 92.53125 184.382812 92.507812 C 179.894531 92.460938 171.152344 92.75 163.035156 95.289062 C 152.921875 98.453125 146.933594 104.035156 145.230469 111.882812 C 144.636719 114.613281 143.761719 119.050781 142.9375 124.710938 C 141.726562 126.242188 140.730469 127.960938 139.992188 129.828125 C 137.375 136.445312 136.886719 144.144531 138.578125 152.09375 C 138.796875 153.136719 139.152344 154.125 139.625 155.054688 L 131.945312 155.054688 C 127.835938 155.054688 124 157.851562 121.152344 162.925781 C 118.375 167.875 116.839844 174.441406 116.839844 181.414062 C 116.839844 188.390625 118.375 194.957031 121.152344 199.90625 C 124 204.980469 127.835938 207.773438 131.945312 207.773438 L 143.582031 207.773438 C 147.402344 207.773438 150.976562 205.363281 153.75 200.957031 C 161.570312 210.828125 172.878906 215.835938 187.390625 215.835938 C 201.898438 215.835938 213.207031 210.828125 221.027344 200.957031 C 223.800781 205.363281 227.375 207.773438 231.195312 207.773438 L 242.832031 207.773438 C 246.941406 207.773438 250.777344 204.980469 253.625 199.90625 C 256.402344 194.957031 257.9375 188.390625 257.9375 181.414062 C 257.9375 174.441406 256.402344 167.875 253.625 162.925781 Z M 233.515625 130.328125 C 236.035156 136.695312 236.503906 144.125 234.867188 151.808594 C 234.621094 152.96875 234.191406 154.058594 233.597656 155.054688 L 231.195312 155.054688 C 227.984375 155.054688 224.945312 156.769531 222.410156 159.933594 C 220.710938 159.582031 219.117188 158.820312 217.78125 157.707031 L 193.980469 137.914062 C 191.289062 135.671875 189.980469 132.269531 190.484375 128.804688 C 190.984375 125.359375 193.195312 122.472656 196.402344 121.09375 C 200.835938 119.179688 206.675781 118.214844 213.761719 118.214844 C 214.570312 118.214844 215.402344 118.222656 216.238281 118.25 C 223.925781 118.488281 230.707031 123.230469 233.515625 130.328125 Z M 214.289062 180.050781 C 214.289062 180.050781 213.398438 177.328125 213.84375 173.511719 C 213.84375 173.511719 208.988281 188.542969 220.050781 199.25 C 214.945312 198.722656 210.871094 190.925781 210.871094 181.414062 C 210.871094 171.90625 214.945312 164.109375 220.050781 163.582031 C 220.046875 163.582031 214.6875 171.429688 214.289062 180.050781 Z M 196.445312 159.503906 C 200.183594 162.042969 202.816406 165.953125 204.269531 171.035156 C 200.867188 164.941406 194.578125 160.839844 187.390625 160.839844 C 180.203125 160.839844 173.910156 164.941406 170.511719 171.03125 C 171.953125 165.976562 174.570312 162.078125 178.277344 159.539062 C 182.773438 156.460938 187.34375 156.414062 187.390625 156.414062 C 187.417969 156.414062 188.554688 156.425781 190.25 156.8125 C 191.949219 157.203125 194.199219 157.976562 196.445312 159.503906 Z M 187.390625 162.199219 C 197.421875 162.199219 205.582031 170.820312 205.582031 181.414062 C 205.582031 192.011719 197.421875 200.632812 187.390625 200.632812 C 177.355469 200.632812 169.195312 192.011719 169.195312 181.414062 C 169.195312 170.820312 177.355469 162.199219 187.390625 162.199219 Z M 141.261719 130.328125 C 144.070312 123.230469 150.851562 118.488281 158.539062 118.25 C 159.375 118.222656 160.207031 118.214844 161.015625 118.214844 C 168.101562 118.214844 173.941406 119.179688 178.375 121.09375 C 181.582031 122.472656 183.792969 125.359375 184.292969 128.804688 C 184.796875 132.269531 183.488281 135.671875 180.796875 137.914062 L 156.996094 157.707031 C 155.660156 158.820312 154.0625 159.582031 152.367188 159.933594 C 149.832031 156.769531 146.796875 155.054688 143.582031 155.054688 L 141.179688 155.054688 C 140.585938 154.058594 140.15625 152.96875 139.914062 151.808594 C 138.273438 144.125 138.742188 136.695312 141.261719 130.328125 Z M 118.207031 181.414062 C 118.207031 167.628906 124.367188 156.414062 131.945312 156.414062 C 139.519531 156.414062 145.683594 167.628906 145.683594 181.414062 C 145.683594 195.199219 139.519531 206.414062 131.945312 206.414062 C 124.367188 206.414062 118.207031 195.199219 118.207031 181.414062 Z M 143.582031 206.414062 L 136.773438 206.414062 C 139.007812 205.117188 141.046875 202.917969 142.738281 199.90625 C 145.519531 194.957031 147.046875 188.390625 147.046875 181.414062 C 147.046875 174.441406 145.519531 167.875 142.738281 162.925781 C 141.046875 159.914062 139.007812 157.714844 136.773438 156.414062 L 143.582031 156.414062 C 151.160156 156.414062 157.320312 167.628906 157.320312 181.414062 C 157.320312 195.199219 151.160156 206.414062 143.582031 206.414062 Z M 161.675781 184.511719 L 159.988281 185.34375 C 159.988281 185.34375 162.109375 171.296875 154.730469 163.585938 C 159.835938 164.109375 163.90625 171.910156 163.90625 181.417969 C 163.90625 189.53125 160.941406 196.394531 156.902344 198.5625 C 158.195312 196.515625 160.644531 191.832031 161.675781 184.511719 Z M 155.183594 200.558594 C 160.832031 199.675781 165.273438 191.429688 165.273438 181.414062 C 165.273438 170.8125 160.292969 162.191406 154.175781 162.191406 L 153.945312 162.191406 C 153.71875 161.820312 153.488281 161.464844 153.257812 161.121094 C 154.945312 160.679688 156.523438 159.871094 157.871094 158.75 L 181.667969 138.957031 C 184.730469 136.414062 186.21875 132.542969 185.644531 128.613281 C 185.074219 124.691406 182.558594 121.414062 178.914062 119.84375 C 174.3125 117.859375 168.289062 116.855469 161.015625 116.855469 C 160.191406 116.855469 159.347656 116.863281 158.5 116.890625 C 153.15625 117.058594 148.226562 119.253906 144.597656 122.855469 C 145.316406 118.207031 146.046875 114.542969 146.5625 112.171875 C 148.15625 104.835938 153.835938 99.589844 163.445312 96.585938 C 171.382812 94.101562 179.960938 93.816406 184.367188 93.867188 C 185.726562 93.882812 187.101562 93.882812 188.472656 93.878906 C 193.972656 94.019531 218.5625 95.402344 218.5625 108.875 C 218.5625 108.875 209.214844 107.144531 200.9375 109.671875 C 200.9375 109.671875 214.023438 111.535156 218.5625 114.328125 C 218.5625 114.328125 206.253906 115.171875 196.789062 119.46875 C 196.476562 119.589844 196.164062 119.714844 195.863281 119.84375 C 192.21875 121.414062 189.703125 124.695312 189.132812 128.613281 C 189.03125 129.316406 188.996094 130.011719 189.023438 130.703125 C 189.023438 130.699219 189.023438 130.691406 189.019531 130.6875 C 189.019531 130.6875 189.019531 138.316406 194.132812 144.703125 C 194.132812 144.703125 189.550781 142.929688 183.449219 143.992188 C 183.449219 143.992188 189.46875 148.210938 190.972656 155.589844 C 188.929688 155.078125 187.507812 155.0625 187.390625 155.0625 C 187.277344 155.0625 186.027344 155.074219 184.203125 155.496094 C 182.375 155.914062 179.976562 156.746094 177.5625 158.382812 C 173.121094 161.40625 167.828125 167.851562 167.828125 181.421875 C 167.828125 192.769531 176.601562 202 187.390625 202 C 192.214844 202 196.628906 200.152344 200.046875 197.09375 C 200.039062 197.101562 200.03125 197.109375 200.027344 197.121094 C 200.027344 197.121094 198.089844 201.808594 193.371094 204.46875 C 193.371094 204.46875 197.882812 204.027344 200.164062 203.226562 C 200.164062 203.226562 194.882812 209.878906 188.207031 210.585938 C 188.207031 210.585938 191.070312 213.324219 195.851562 213.84375 C 193.171875 214.265625 190.351562 214.484375 187.390625 214.484375 C 173.542969 214.476562 162.71875 209.792969 155.183594 200.558594 Z M 231.195312 206.414062 C 223.617188 206.414062 217.457031 195.199219 217.457031 181.414062 C 217.457031 167.628906 223.617188 156.414062 231.195312 156.414062 L 238.003906 156.414062 C 235.769531 157.714844 233.730469 159.914062 232.039062 162.925781 C 229.257812 167.875 227.730469 174.441406 227.730469 181.414062 C 227.730469 188.390625 229.257812 194.957031 232.039062 199.90625 C 233.730469 202.917969 235.769531 205.117188 238.003906 206.414062 Z M 242.832031 206.414062 C 235.257812 206.414062 229.09375 195.199219 229.09375 181.414062 C 229.09375 167.628906 235.257812 156.414062 242.832031 156.414062 C 250.410156 156.414062 256.570312 167.628906 256.570312 181.414062 C 256.570312 195.199219 250.410156 206.414062 242.832031 206.414062 Z M 133.421875 168.253906 L 133.019531 167.957031 L 133.003906 167.972656 C 132.082031 167.394531 131.109375 167.101562 130.109375 167.101562 C 125.433594 167.101562 121.773438 173.390625 121.773438 181.414062 C 121.773438 189.441406 125.433594 195.726562 130.109375 195.726562 C 131.109375 195.726562 132.082031 195.433594 133.003906 194.859375 L 133.019531 194.871094 L 133.421875 194.578125 C 136.476562 192.339844 138.449219 187.171875 138.449219 181.414062 C 138.449219 180.339844 138.378906 179.277344 138.246094 178.253906 C 137.671875 173.824219 135.902344 170.074219 133.421875 168.253906 Z M 131.863281 193.933594 C 131.289062 194.21875 130.703125 194.367188 130.109375 194.367188 C 126.332031 194.367188 123.136719 188.4375 123.136719 181.414062 C 123.136719 174.398438 126.332031 168.460938 130.109375 168.460938 C 130.703125 168.460938 131.289062 168.613281 131.863281 168.894531 C 129.246094 171.382812 127.589844 176.148438 127.589844 181.414062 C 127.589844 186.683594 129.246094 191.449219 131.863281 193.933594 Z M 244.667969 167.101562 C 243.667969 167.101562 242.695312 167.394531 241.773438 167.972656 L 241.757812 167.957031 L 241.355469 168.253906 C 238.300781 170.492188 236.328125 175.65625 236.328125 181.414062 C 236.328125 182.855469 236.453125 184.257812 236.683594 185.585938 C 236.757812 186 236.84375 186.40625 236.9375 186.804688 C 237.589844 189.605469 238.75 192 240.261719 193.605469 C 240.609375 193.972656 240.972656 194.292969 241.355469 194.578125 L 241.757812 194.871094 L 241.773438 194.859375 C 242.695312 195.433594 243.667969 195.726562 244.667969 195.726562 C 249.34375 195.726562 253.003906 189.441406 253.003906 181.414062 C 253.003906 173.390625 249.34375 167.101562 244.667969 167.101562 Z M 244.667969 194.367188 C 244.074219 194.367188 243.488281 194.21875 242.914062 193.933594 C 245.53125 191.449219 247.1875 186.683594 247.1875 181.414062 C 247.1875 176.148438 245.53125 171.382812 242.914062 168.894531 C 243.488281 168.613281 244.074219 168.460938 244.667969 168.460938 C 248.445312 168.460938 251.640625 174.398438 251.640625 181.414062 C 251.640625 188.4375 248.445312 194.367188 244.667969 194.367188 Z M 187.390625 185.339844 C 189.5625 185.339844 191.328125 183.582031 191.328125 181.414062 C 191.328125 179.25 189.5625 177.488281 187.390625 177.488281 C 185.214844 177.488281 183.449219 179.25 183.449219 181.414062 C 183.449219 183.582031 185.214844 185.339844 187.390625 185.339844 Z M 194.132812 101.027344 C 192.671875 103.023438 189.964844 106.082031 189.964844 106.082031 C 200.894531 104.085938 211.484375 104.351562 211.484375 104.351562 L 209.746094 101.027344 C 201.527344 94.503906 187.390625 98.902344 187.390625 98.902344 C 193.050781 99.214844 199.199219 100.5 199.199219 100.5 Z M 186.769531 153.105469 C 186.769531 153.105469 184.5 147.796875 178.441406 145.339844 C 178.441406 145.339844 179.535156 151.125 186.769531 153.105469 Z M 202.917969 113.484375 C 187.542969 111.09375 187.390625 121.953125 187.390625 121.953125 C 191.289062 116.058594 202.917969 113.484375 202.917969 113.484375 Z M 202.917969 113.484375 " fill-opacity="1" fill-rule="nonzero"/><g fill="rgb(6.269836%, 5.879211%, 5.099487%)" fill-opacity="1"><g transform="translate(113.053995, 265.768892)"><g><path d="M 28.488281 -36.117188 L 3.019531 -36.117188 C 1.757812 -36.117188 1.425781 -35.511719 1.425781 -34.523438 L 1.425781 -29.96875 C 1.425781 -28.980469 1.757812 -28.378906 3.019531 -28.378906 L 11.472656 -28.378906 L 11.472656 -1.589844 C 11.472656 -0.328125 12.074219 0 13.0625 0 L 18.496094 0 C 19.484375 0 20.089844 -0.328125 20.089844 -1.589844 L 20.089844 -28.378906 L 28.488281 -28.378906 C 29.75 -28.378906 30.078125 -28.980469 30.078125 -29.96875 L 30.078125 -34.523438 C 30.078125 -35.511719 29.75 -36.117188 28.488281 -36.117188 Z M 28.488281 -36.117188 "/></g></g></g><g fill="rgb(6.269836%, 5.879211%, 5.099487%)" fill-opacity="1"><g transform="translate(142.247546, 265.768892)"><g><path d="M 32.4375 -11.582031 L 32.4375 -24.535156 C 32.4375 -33.207031 24.207031 -36.941406 17.675781 -36.941406 C 11.140625 -36.941406 3.019531 -33.207031 3.019531 -24.535156 L 3.019531 -11.582031 C 3.019531 -2.910156 11.140625 0.824219 17.675781 0.824219 C 24.207031 0.824219 32.4375 -2.910156 32.4375 -11.582031 Z M 23.820312 -23.765625 L 23.820312 -12.351562 C 23.820312 -8.835938 21.296875 -6.804688 17.675781 -6.804688 C 14.105469 -6.804688 11.582031 -8.835938 11.582031 -12.351562 L 11.582031 -23.765625 C 11.582031 -27.28125 14.105469 -29.308594 17.675781 -29.308594 C 21.296875 -29.308594 23.820312 -27.28125 23.820312 -23.765625 Z M 23.820312 -23.765625 "/></g></g></g><g fill="rgb(6.269836%, 5.879211%, 5.099487%)" fill-opacity="1"><g transform="translate(175.337293, 265.768892)"><g><path d="M 30.902344 -1.703125 L 21.1875 -18.496094 L 31.066406 -34.578125 C 31.449219 -35.183594 31.175781 -36.117188 30.242188 -36.117188 L 23.820312 -36.117188 C 22.722656 -36.117188 22.339844 -35.675781 21.570312 -34.523438 L 16.136719 -25.6875 L 10.648438 -34.523438 C 9.933594 -35.675781 9.496094 -36.117188 8.453125 -36.117188 L 1.976562 -36.117188 C 1.042969 -36.117188 0.824219 -35.183594 1.152344 -34.578125 L 11.085938 -18.496094 L 1.316406 -1.703125 C 0.878906 -1.042969 1.152344 0 1.976562 0 L 8.234375 0 C 9.441406 0 9.933594 -0.109375 10.648438 -1.535156 L 16.136719 -11.308594 L 21.570312 -1.535156 C 22.339844 -0.109375 22.777344 0 23.984375 0 L 30.242188 0 C 31.066406 0 31.339844 -1.042969 30.902344 -1.703125 Z M 30.902344 -1.703125 "/></g></g></g><g fill="rgb(6.269836%, 5.879211%, 5.099487%)" fill-opacity="1"><g transform="translate(205.189365, 265.768892)"><g><path d="M 19.761719 -7.519531 L 16.300781 -7.519531 L 16.300781 -28.488281 L 19.59375 -28.488281 C 20.859375 -28.488281 21.1875 -29.089844 21.1875 -30.078125 L 21.1875 -34.523438 C 21.1875 -35.511719 20.859375 -36.117188 19.59375 -36.117188 L 4.335938 -36.117188 C 3.074219 -36.117188 2.746094 -35.511719 2.746094 -34.523438 L 2.746094 -30.078125 C 2.746094 -29.089844 3.074219 -28.488281 4.335938 -28.488281 L 7.683594 -28.488281 L 7.683594 -7.519531 L 4.226562 -7.519531 C 2.964844 -7.519531 2.632812 -6.914062 2.632812 -5.929688 L 2.632812 -1.589844 C 2.632812 -0.605469 2.964844 0 4.226562 0 L 19.761719 0 C 21.023438 0 21.351562 -0.605469 21.351562 -1.589844 L 21.351562 -5.929688 C 21.351562 -6.914062 21.023438 -7.519531 19.761719 -7.519531 Z M 19.761719 -7.519531 "/></g></g></g><g fill="rgb(6.269836%, 5.879211%, 5.099487%)" fill-opacity="1"><g transform="translate(227.249023, 265.768892)"><g><path d="M 31.890625 -10.703125 C 31.890625 -12.019531 31.449219 -12.570312 30.242188 -12.570312 L 24.863281 -12.570312 C 23.65625 -12.570312 23.546875 -11.691406 23.382812 -10.59375 C 22.941406 -7.957031 20.582031 -6.859375 17.617188 -6.859375 C 13.996094 -6.859375 11.527344 -8.835938 11.527344 -12.351562 L 11.527344 -23.765625 C 11.527344 -27.222656 13.996094 -29.253906 17.617188 -29.253906 C 20.582031 -29.253906 22.121094 -28.433594 23.273438 -26.621094 C 23.710938 -25.960938 23.765625 -24.917969 24.917969 -24.917969 L 30.1875 -24.917969 C 31.449219 -24.917969 31.890625 -25.195312 31.890625 -26.511719 C 31.175781 -33.480469 24.425781 -36.941406 17.617188 -36.941406 C 11.085938 -36.941406 2.910156 -33.152344 2.910156 -24.535156 L 2.910156 -11.582031 C 2.910156 -2.964844 11.085938 0.824219 17.617188 0.824219 C 24.425781 0.824219 31.890625 -3.621094 31.890625 -10.703125 Z M 31.890625 -10.703125 "/></g></g></g><g fill="rgb(6.269836%, 5.879211%, 5.099487%)" fill-opacity="1"><g transform="translate(144.730608, 285.214376)"><g><path d="M 4.28125 0.171875 C 6.125 0.171875 7.578125 -1.066406 7.917969 -2.914062 L 6.285156 -2.914062 C 6.019531 -1.972656 5.261719 -1.375 4.28125 -1.375 C 3.007812 -1.375 2.058594 -2.378906 2.058594 -3.726562 C 2.058594 -5.070312 3.007812 -6.082031 4.28125 -6.082031 C 5.21875 -6.082031 5.964844 -5.527344 6.277344 -4.652344 L 7.886719 -4.652344 C 7.546875 -6.425781 6.09375 -7.628906 4.28125 -7.628906 C 2.082031 -7.628906 0.417969 -5.945312 0.417969 -3.726562 C 0.417969 -1.515625 2.082031 0.171875 4.28125 0.171875 Z M 4.28125 0.171875 "/></g></g></g><g fill="rgb(6.269836%, 5.879211%, 5.099487%)" fill-opacity="1"><g transform="translate(154.853464, 285.214376)"><g><path d="M 4.398438 0.171875 C 6.671875 0.171875 8.367188 -1.503906 8.367188 -3.734375 C 8.367188 -5.957031 6.671875 -7.628906 4.398438 -7.628906 C 2.113281 -7.628906 0.40625 -5.945312 0.40625 -3.734375 C 0.40625 -1.515625 2.113281 0.171875 4.398438 0.171875 Z M 4.398438 -1.355469 C 3.0625 -1.355469 2.050781 -2.390625 2.050781 -3.734375 C 2.050781 -5.082031 3.0625 -6.105469 4.398438 -6.105469 C 5.730469 -6.105469 6.722656 -5.089844 6.722656 -3.734375 C 6.722656 -2.378906 5.730469 -1.355469 4.398438 -1.355469 Z M 4.398438 -1.355469 "/></g></g></g><g fill="rgb(6.269836%, 5.879211%, 5.099487%)" fill-opacity="1"><g transform="translate(165.530844, 285.214376)"><g><path d="M 10 0 L 8.847656 -7.472656 L 7.226562 -7.472656 L 5.199219 -2.882812 L 3.167969 -7.472656 L 1.558594 -7.472656 L 0.382812 0 L 2.027344 0 L 2.765625 -4.867188 L 4.996094 -0.0117188 L 5.390625 -0.0117188 L 7.621094 -4.867188 L 8.355469 0 Z M 10 0 "/></g></g></g><g fill="rgb(6.269836%, 5.879211%, 5.099487%)" fill-opacity="1"><g transform="translate(177.829177, 285.214376)"><g><path d="M 10 0 L 8.847656 -7.472656 L 7.226562 -7.472656 L 5.199219 -2.882812 L 3.167969 -7.472656 L 1.558594 -7.472656 L 0.382812 0 L 2.027344 0 L 2.765625 -4.867188 L 4.996094 -0.0117188 L 5.390625 -0.0117188 L 7.621094 -4.867188 L 8.355469 0 Z M 10 0 "/></g></g></g><g fill="rgb(6.269836%, 5.879211%, 5.099487%)" fill-opacity="1"><g transform="translate(190.127509, 285.214376)"><g><path d="M 3.863281 0.171875 C 5.625 0.171875 6.949219 -1.054688 6.949219 -2.808594 L 6.949219 -7.472656 L 5.324219 -7.472656 L 5.324219 -2.882812 C 5.324219 -1.953125 4.71875 -1.355469 3.863281 -1.355469 C 3 -1.355469 2.390625 -1.953125 2.390625 -2.882812 L 2.390625 -7.472656 L 0.769531 -7.472656 L 0.769531 -2.808594 C 0.769531 -1.054688 2.09375 0.171875 3.863281 0.171875 Z M 3.863281 0.171875 "/></g></g></g><g fill="rgb(6.269836%, 5.879211%, 5.099487%)" fill-opacity="1"><g transform="translate(199.749151, 285.214376)"><g><path d="M 5.582031 -7.472656 L 5.582031 -2.914062 L 2.304688 -7.472656 L 0.855469 -7.472656 L 0.855469 0 L 2.433594 0 L 2.433594 -4.664062 L 5.816406 0 L 7.171875 0 L 7.171875 -7.472656 Z M 5.582031 -7.472656 "/></g></g></g><g fill="rgb(6.269836%, 5.879211%, 5.099487%)" fill-opacity="1"><g transform="translate(209.669393, 285.214376)"><g><path d="M 0.855469 0 L 2.464844 0 L 2.464844 -7.472656 L 0.855469 -7.472656 Z M 0.855469 0 "/></g></g></g><g fill="rgb(6.269836%, 5.879211%, 5.099487%)" fill-opacity="1"><g transform="translate(214.89742, 285.214376)"><g><path d="M 5.996094 -7.472656 L 0.222656 -7.472656 L 0.222656 -5.964844 L 2.304688 -5.964844 L 2.304688 0 L 3.917969 0 L 3.917969 -5.964844 L 5.996094 -5.964844 Z M 5.996094 -7.472656 "/></g></g></g><g fill="rgb(6.269836%, 5.879211%, 5.099487%)" fill-opacity="1"><g transform="translate(223.026089, 285.214376)"><g><path d="M 7.074219 -7.472656 L 5.347656 -7.472656 L 3.617188 -4.472656 L 1.898438 -7.472656 L 0.179688 -7.472656 L 2.785156 -3.019531 L 2.785156 0 L 4.441406 0 L 4.441406 -3.007812 Z M 7.074219 -7.472656 "/></g></g></g></svg>