<svg width="26" height="22" viewBox="0 0 26 22" fill="none" xmlns="http://www.w3.org/2000/svg">
<path fill-rule="evenodd" clip-rule="evenodd" d="M24.7471 0.607024C23.7598 1.22545 22.6689 1.67521 21.5029 1.91586C20.5741 0.86687 19.2466 0.211426 17.7769 0.211426C14.9599 0.211426 12.6737 2.63026 12.6737 5.61336C12.6737 6.03707 12.7176 6.44775 12.8053 6.84335C8.56243 6.61778 4.80128 4.46976 2.28189 1.19734C1.84206 1.99813 1.59091 2.92713 1.59091 3.91647C1.59091 5.78956 2.49184 7.44326 3.86249 8.41203C3.02668 8.38597 2.23804 8.14052 1.54839 7.73875V7.80457C1.54839 10.4229 3.30838 12.6073 5.64573 13.1016C5.21786 13.2284 4.76607 13.2922 4.30032 13.2922C3.97145 13.2922 3.65054 13.2593 3.33961 13.1962C3.98939 15.3415 5.87362 16.904 8.10798 16.9458C6.36128 18.3952 4.15881 19.2591 1.76764 19.2591C1.35572 19.2591 0.948443 19.2344 0.549805 19.185C2.80875 20.7153 5.49358 21.61 8.37573 21.61C17.767 21.61 22.9008 13.38 22.9008 6.24069C22.9008 6.00553 22.8968 5.77105 22.8882 5.54068C23.8854 4.77897 24.7518 3.82803 25.4335 2.74476C24.5192 3.17395 23.5346 3.46465 22.5021 3.59492C23.5565 2.92713 24.3658 1.86855 24.7471 0.607024Z" fill="white"/>
</svg>